<?xml version="1.0" standalone="no"?>
<!DOCTYPE svg PUBLIC "-//W3C//DTD SVG 20010904//EN"
 "http://www.w3.org/TR/2001/REC-SVG-20010904/DTD/svg10.dtd">
<svg version="1.0" xmlns="http://www.w3.org/2000/svg"
 width="730.000000pt" height="583.000000pt" viewBox="0 0 730.000000 583.000000"
 preserveAspectRatio="xMidYMid meet">

<g transform="translate(0.000000,583.000000) scale(0.100000,-0.100000)"
fill="#000000" stroke="none">
<path d="M3585 4860 c3 -5 8 -10 11 -10 2 0 4 5 4 10 0 6 -5 10 -11 10 -5 0
-7 -4 -4 -10z"/>
<path d="M3622 4805 c0 -16 2 -22 5 -12 2 9 2 23 0 30 -3 6 -5 -1 -5 -18z"/>
<path d="M3670 4724 c0 -8 5 -12 10 -9 6 3 10 10 10 16 0 5 -4 9 -10 9 -5 0
-10 -7 -10 -16z"/>
<path d="M3147 4704 c-3 -3 -3 -13 0 -22 4 -9 2 -13 -4 -9 -5 3 -10 0 -10 -8
0 -8 3 -15 6 -15 4 0 8 -12 9 -27 1 -16 9 -42 17 -60 41 -86 25 -120 -62 -134
-146 -23 -143 -23 -143 -2 0 20 28 78 72 149 36 58 40 64 35 64 -2 0 -32 -42
-66 -94 -49 -75 -69 -97 -96 -106 -18 -6 -36 -18 -39 -26 -9 -24 -7 -64 3 -64
19 0 21 -37 8 -131 -10 -73 -18 -100 -35 -117 -29 -29 -28 -60 4 -93 23 -24
29 -45 46 -160 18 -127 18 -135 2 -171 -14 -32 -15 -42 -5 -61 11 -21 6 -38
-36 -142 -26 -64 -55 -120 -63 -123 -29 -10 -50 -35 -50 -61 0 -34 10 -48 42
-60 22 -8 43 -42 108 -171 71 -142 80 -165 74 -197 -6 -34 -4 -39 33 -72 33
-30 46 -53 73 -131 17 -52 57 -159 87 -238 50 -130 54 -147 48 -196 -7 -51 -6
-55 20 -72 24 -16 30 -16 53 -3 42 23 48 42 29 86 -17 38 -17 39 33 253 27
118 50 218 50 223 0 4 11 12 25 17 34 13 41 49 17 93 -16 30 -17 46 -11 104 4
37 13 122 19 188 10 105 14 123 35 145 30 32 32 59 5 93 -18 23 -20 40 -20
199 0 162 1 174 20 186 11 7 20 23 20 37 0 27 -32 65 -54 65 -8 0 -28 -11 -45
-25 -38 -33 -119 -39 -148 -12 -11 9 -35 17 -54 17 -33 0 -92 33 -110 62 -15
23 6 41 108 88 88 42 107 48 123 37 15 -9 27 -9 50 0 26 10 38 8 88 -17 43
-21 62 -37 72 -59 7 -17 16 -31 21 -31 24 0 0 -178 -25 -192 -9 -5 -21 -21
-27 -35 -11 -30 8 -68 40 -78 29 -9 46 -68 31 -105 -27 -66 21 -111 80 -76 25
14 29 14 34 1 11 -29 44 3 82 80 33 67 37 82 36 152 0 43 -5 98 -11 123 -6 25
-11 77 -11 117 0 67 2 75 31 108 90 102 373 81 497 -38 45 -43 41 -67 -19
-121 -72 -65 -203 -99 -296 -78 -33 8 -45 7 -54 -4 -14 -17 -6 -548 10 -679 5
-44 15 -127 21 -185 15 -143 45 -307 85 -475 39 -162 52 -202 64 -189 14 15
116 290 161 434 52 166 85 234 194 393 49 73 88 141 92 162 11 63 -4 126 -60
240 -30 61 -63 142 -75 181 -27 92 -28 192 -2 225 52 68 56 85 56 259 -1 131
-5 178 -19 230 -25 86 -79 198 -113 235 -16 16 -28 32 -27 35 1 3 -7 13 -17
23 -11 9 -19 14 -19 10 0 -5 -4 -2 -8 5 -7 10 -75 13 -295 15 l-287 2 0 -80
c0 -95 -8 -113 -38 -94 -25 16 -32 38 -32 112 0 44 -3 57 -15 57 -8 0 -15 -5
-15 -11 0 -5 5 -7 12 -3 8 5 9 2 5 -10 -4 -10 -7 -40 -7 -67 0 -37 -4 -51 -16
-56 -18 -7 -63 14 -108 51 -28 22 -29 24 -15 54 7 17 16 29 20 26 6 -3 5 19
-1 36 -1 3 -2 10 -1 15 1 6 -8 -2 -20 -17 -21 -28 -46 -39 -34 -15 4 6 1 5 -7
-4 -7 -9 -17 -17 -23 -17 -5 -1 -23 -6 -39 -12 -24 -8 -27 -12 -16 -25 19 -23
3 -57 -43 -90 -56 -40 -74 -46 -86 -32 -18 23 -63 152 -64 185 -1 35 -1 35
-10 26z m251 -252 c3 -118 -6 -132 -59 -88 -17 14 -34 26 -39 26 -4 0 -13 14
-20 30 -14 33 -13 34 50 102 55 59 65 50 68 -70z m118 75 c38 -26 50 -41 51
-63 2 -25 -6 -35 -56 -71 -33 -24 -64 -43 -70 -43 -7 0 -11 35 -11 105 0 123
5 127 86 72z m181 -163 c-7 -91 -16 -106 -46 -68 -40 51 -20 144 32 144 19 0
20 -5 14 -76z m-93 40 c13 -33 6 -81 -14 -99 -19 -18 -88 -23 -111 -9 -21 12
-5 41 44 81 57 46 72 51 81 27z m-436 -11 c7 -12 0 -36 -24 -86 -52 -108 -60
-110 -131 -23 -76 93 -75 97 52 115 89 13 93 12 103 -6z m145 -38 c50 -37 55
-46 35 -63 -18 -14 -179 -82 -195 -82 -19 0 -16 13 16 84 26 58 60 96 86 96 5
0 31 -16 58 -35z m-286 -132 c26 -39 9 -71 -52 -99 -30 -14 -60 -22 -66 -18
-14 8 -2 193 14 213 9 11 19 5 51 -30 21 -24 45 -54 53 -66z m535 8 c24 -25
28 -38 27 -83 -1 -63 -10 -99 -24 -99 -14 1 -117 200 -109 213 12 19 77 0 106
-31z m-186 15 c9 -23 -26 -125 -46 -136 -11 -6 -25 -22 -32 -38 -9 -19 -39
-40 -108 -74 -107 -53 -130 -58 -130 -27 0 48 24 115 49 139 15 14 35 37 44
53 10 15 23 27 30 28 6 0 44 15 82 34 77 37 103 42 111 21z m107 -119 c41 -89
56 -137 43 -137 -2 0 -28 11 -58 25 -83 38 -103 96 -67 193 15 40 33 23 82
-81z m207 -254 c0 -197 -4 -364 -9 -372 -8 -12 -13 -12 -36 3 -35 23 -61 84
-46 108 16 25 14 59 -5 79 -14 15 -15 32 -9 103 6 71 10 87 31 105 28 24 31
62 8 82 -14 12 -16 28 -11 108 6 78 10 98 29 118 48 51 48 49 48 -334z m-635
237 c12 -19 -30 -150 -48 -150 -21 0 -77 64 -77 87 0 18 11 29 53 48 59 28 64
29 72 15z m-110 -146 c14 -15 25 -34 25 -42 0 -9 5 -30 11 -47 10 -26 9 -40
-6 -79 -12 -30 -22 -43 -28 -37 -8 8 -45 182 -47 219 0 20 19 14 45 -14z m165
-141 c34 -23 49 -44 50 -68 0 -49 61 -61 100 -20 19 20 33 25 72 25 36 0 48
-4 48 -15 0 -13 -167 -207 -195 -227 -5 -4 -15 -2 -22 5 -10 10 -93 288 -93
310 0 12 14 8 40 -10z m-64 -20 c3 -16 19 -73 35 -127 28 -96 36 -146 23 -146
-3 0 -28 18 -54 40 -41 35 -51 49 -61 95 -9 40 -9 61 -1 82 6 15 16 40 21 56
6 15 15 27 21 27 5 0 12 -12 16 -27z m375 -90 c0 -5 2 -81 5 -169 4 -140 3
-164 -11 -178 -9 -9 -19 -16 -23 -16 -4 0 -43 20 -87 44 -117 63 -118 71 -19
186 43 50 88 102 98 116 20 24 35 31 37 17z m-380 -174 c33 -29 59 -60 59 -71
0 -14 -30 -33 -122 -77 -69 -33 -127 -55 -132 -50 -9 8 52 180 81 227 21 34
49 27 114 -29z m97 -222 c3 -103 -6 -122 -52 -113 -50 10 -226 79 -226 88 0
15 223 118 250 116 24 -3 25 -5 28 -91z m157 51 c51 -26 85 -49 85 -58 0 -15
-151 -100 -177 -100 -22 0 -33 37 -33 107 0 64 10 93 32 93 4 0 46 -19 93 -42z
m118 -120 c2 -7 1 -44 -3 -83 -5 -38 -13 -123 -20 -187 -7 -65 -16 -118 -20
-118 -5 0 -44 57 -88 127 -72 115 -79 129 -71 157 5 17 12 32 17 34 4 1 39 20
77 42 74 41 100 48 108 28z m-423 -46 c101 -36 105 -38 114 -72 7 -30 3 -47
-35 -125 -24 -49 -48 -91 -54 -92 -11 -3 -176 317 -169 328 5 9 16 6 144 -39z
m174 -247 c3 -44 11 -115 17 -157 6 -42 9 -82 7 -89 -3 -8 -20 2 -47 26 -41
37 -77 92 -68 102 3 2 1 17 -3 33 -7 23 -2 46 22 102 17 40 35 79 41 86 15 19
23 -5 31 -103z m115 -24 c54 -88 59 -101 54 -138 -4 -30 -15 -51 -43 -78 -21
-21 -43 -35 -48 -31 -5 3 -15 43 -21 88 -19 151 -31 251 -31 266 0 26 26 -5
89 -107z m-147 -238 c21 -20 28 -36 28 -63 0 -26 7 -42 25 -58 23 -20 25 -29
24 -94 l0 -73 -20 45 c-23 50 -99 254 -99 264 0 12 15 5 42 -21z m207 -40
c-20 -105 -61 -263 -69 -263 -5 0 -11 30 -15 68 -4 37 -9 74 -11 83 -2 9 5 24
16 34 12 11 20 31 20 48 0 31 33 77 55 77 9 0 10 -12 4 -47z"/>
<path d="M3550 4698 c0 -12 7 -18 23 -17 15 0 17 2 7 6 -8 3 -18 11 -22 17 -5
7 -8 4 -8 -6z"/>
<path d="M3800 4700 c0 -5 5 -10 10 -10 6 0 10 5 10 10 0 6 -4 10 -10 10 -5 0
-10 -4 -10 -10z"/>
<path d="M3523 4675 c0 -8 4 -12 9 -9 5 3 6 10 3 15 -9 13 -12 11 -12 -6z"/>
<path d="M3307 4639 c7 -7 15 -10 18 -7 3 3 -2 9 -12 12 -14 6 -15 5 -6 -5z"/>
<path d="M2883 1743 c-15 -5 -19 -349 -5 -371 6 -9 37 -12 118 -10 l109 3 3
38 3 37 -75 0 -76 0 0 149 c0 146 0 149 -22 155 -26 7 -38 7 -55 -1z"/>
<path d="M3264 1742 c-15 -9 -17 -48 -15 -234 l1 -148 40 0 40 0 0 74 c0 51 4
75 13 79 7 2 45 2 85 -1 l72 -5 0 -73 0 -74 39 0 38 0 6 68 c4 37 7 120 7 185
l0 117 -26 11 c-50 18 -63 5 -66 -69 l-3 -67 -80 0 -80 0 -3 65 c-2 36 -8 68
-15 72 -15 10 -39 10 -53 0z"/>
<path d="M3859 1744 c-13 -4 -107 -241 -139 -352 l-9 -33 41 3 c40 3 50 11 62
51 4 14 17 17 76 17 l70 0 17 -35 c15 -32 20 -35 60 -35 24 0 43 2 43 4 0 11
-132 362 -138 368 -10 10 -63 18 -83 12z m57 -179 c8 -20 12 -40 9 -45 -9 -15
-55 -12 -61 4 -5 14 21 76 32 76 3 0 12 -16 20 -35z"/>
<path d="M4210 1736 c-8 -11 -10 -61 -6 -188 3 -95 5 -176 6 -180 0 -5 49 -8
110 -8 96 0 111 2 119 18 6 10 7 28 4 40 -5 20 -12 22 -73 22 -53 0 -69 4 -74
16 -3 9 -6 76 -6 149 0 112 -2 134 -16 139 -26 10 -51 7 -64 -8z"/>
<path d="M4592 1742 c-9 -7 -12 -52 -10 -193 l3 -184 115 0 115 0 3 37 3 37
-73 3 -73 3 -3 139 c-1 82 -7 145 -14 153 -12 15 -46 17 -66 5z"/>
<path d="M5088 1738 c-10 -7 -25 -33 -34 -58 -74 -208 -104 -297 -104 -307 0
-15 48 -17 68 -4 8 4 19 19 26 32 11 22 18 24 80 24 67 0 70 -1 86 -30 14 -25
24 -31 58 -33 23 -2 42 1 42 7 0 11 -127 361 -133 368 -13 12 -74 13 -89 1z
m62 -173 c14 -41 7 -55 -26 -55 -27 0 -31 20 -14 64 13 36 26 33 40 -9z"/>
<path d="M2000 1728 c0 -16 104 -319 120 -347 11 -22 62 -29 88 -12 12 7 132
338 132 362 0 6 -19 9 -42 7 l-43 -3 -39 -112 c-21 -62 -42 -113 -46 -113 -4
0 -25 51 -46 113 l-39 112 -42 3 c-30 2 -43 -1 -43 -10z"/>
<path d="M2492 1683 c-114 -326 -113 -323 -89 -323 33 1 59 15 73 41 14 28 18
29 83 29 68 0 69 0 90 -35 17 -30 26 -35 56 -35 21 0 35 5 35 13 0 6 -29 91
-63 187 l-63 175 -51 3 -51 3 -20 -58z m93 -114 c21 -40 13 -59 -25 -59 -33 0
-36 9 -19 59 14 39 24 39 44 0z"/>
</g>
</svg>
